<svg width="262" height="200" viewBox="0 0 262 200" fill="none" xmlns="http://www.w3.org/2000/svg">
<ellipse cx="131" cy="173" rx="131" ry="27" fill="#565add" fill-opacity="0.2"/>
<path d="M131 181V102L203 73V152.5L131 181Z" fill="url(#paint0_linear)" stroke="white"/>
<path d="M131 181V102L59 73V152.5L131 181Z" fill="#C4C4C4" stroke="black"/>
<path d="M131 181V102L59 73V152.5L131 181Z" fill="url(#paint1_linear)" stroke="white"/>
<path d="M60 72L95.5 54L166.5 86.5L130.5 101L60 72Z" fill="url(#paint2_linear)" stroke="white"/>
<path d="M131 37L202.5 72L167.5 86.5L96 54L131 37Z" fill="url(#paint3_linear)" stroke="black"/>
<path d="M60 72.2531V152.32L131.4 181M60 72.2531L131.4 101.531M60 72.2531L95.7 54.6266M131.4 181V101.531M131.4 181L204 152.32V72.2531M131.4 101.531L167.7 86.8921M204 72.2531L131.4 37L95.7 54.6266M204 72.2531L167.7 86.8921M95.7 54.6266L167.7 86.8921" stroke="white" stroke-width="3"/>
<defs>
<linearGradient id="paint0_linear" x1="203" y1="81" x2="131" y2="181" gradientUnits="userSpaceOnUse">
<stop stop-color="#565add"/>
<stop offset="1" stop-color="#3b3d8f"/>
</linearGradient>
<linearGradient id="paint1_linear" x1="62" y1="77" x2="131" y2="181" gradientUnits="userSpaceOnUse">
<stop stop-color="#565add"/>
<stop offset="1" stop-color="#3b3d8f"/>
</linearGradient>
<linearGradient id="paint2_linear" x1="95" y1="54" x2="133" y2="101" gradientUnits="userSpaceOnUse">
<stop stop-color="#3b3d8f"/>
<stop offset="1" stop-color="#565add"/>
</linearGradient>
<linearGradient id="paint3_linear" x1="128" y1="37" x2="169" y2="86" gradientUnits="userSpaceOnUse">
<stop stop-color="#565add"/>
<stop offset="1" stop-color="#3b3d8f"/>
</linearGradient>
</defs>
</svg>
