<svg enable-background="new 0 0 128 128" height="128px" id="Layer_1" version="1.1" viewBox="0 0 128 128" width="128px" xml:space="preserve" xmlns="http://www.w3.org/2000/svg" xmlns:xlink="http://www.w3.org/1999/xlink"><g><path fill="black" d="M128,64c0-3.48-2.301-6.66-6.314-8.725l-11.369-5.847l11.369-5.848c4.014-2.064,6.314-5.244,6.314-8.725   c0-3.48-2.301-6.66-6.314-8.724L75.877,2.575C72.648,0.915,68.432,0,64,0c-4.431,0-8.648,0.914-11.875,2.574L6.315,26.133   c-4.013,2.064-6.314,5.244-6.314,8.725c0,3.48,2.301,6.66,6.314,8.724l11.37,5.847l-11.37,5.847C2.302,57.34,0.001,60.52,0.001,64   c0,3.48,2.302,6.66,6.314,8.724l11.37,5.847l-11.37,5.848c-4.013,2.063-6.314,5.243-6.314,8.724s2.302,6.66,6.314,8.725   l45.809,23.558c3.228,1.66,7.445,2.574,11.875,2.574c4.432,0,8.648-0.914,11.875-2.573l45.811-23.56   c4.014-2.063,6.314-5.243,6.314-8.724s-2.301-6.66-6.314-8.725l-11.371-5.847l11.371-5.848C125.699,70.66,128,67.48,128,64z    M118.027,65.609l-45.811,23.56c-2.086,1.072-5.082,1.688-8.217,1.688c-3.135,0-6.13-0.615-8.216-1.688L9.975,65.61   c-1.514-0.779-1.943-1.49-1.976-1.583c0.032-0.147,0.462-0.858,1.976-1.637l16.458-8.463l23.961,12.322l1.732,0.891   c0.903,0.465,1.891,0.864,2.933,1.208c2.679,0.886,5.752,1.366,8.942,1.366c3.189,0,6.264-0.48,8.943-1.366   c1.041-0.344,2.029-0.743,2.932-1.208l1.732-0.891l23.961-12.323l16.457,8.463c1.516,0.779,1.945,1.49,1.977,1.583   C119.971,64.121,119.541,64.831,118.027,65.609z M120.002,93.115c-0.031,0.147-0.461,0.858-1.975,1.637l-45.811,23.56   c-2.086,1.072-5.082,1.688-8.217,1.688c-3.135,0-6.13-0.615-8.216-1.688L9.975,94.753c-1.514-0.779-1.944-1.49-1.976-1.583   c0.032-0.147,0.461-0.858,1.975-1.637l16.458-8.464l25.693,13.213c3.228,1.66,7.445,2.574,11.875,2.574   c4.432,0,8.648-0.914,11.875-2.573l25.695-13.214l16.457,8.463C119.541,92.312,119.971,93.022,120.002,93.115z M7.999,34.884   c0.032-0.147,0.462-0.858,1.975-1.637l45.81-23.558C57.87,8.616,60.865,8,64,8c3.136,0,6.13,0.615,8.218,1.688l45.807,23.558   c1.516,0.779,1.945,1.49,1.977,1.583c-0.031,0.147-0.461,0.858-1.975,1.637L72.943,59.652l-0.727,0.374   c-2.086,1.073-5.08,1.688-8.217,1.688c-3.135,0-6.13-0.615-8.216-1.688l-0.726-0.374L9.975,36.467   C8.461,35.688,8.031,34.978,7.999,34.884z"/></g></svg>